<svg width="1000" height="1000" xmlns="http://www.w3.org/2000/svg" shape-rendering="crispEdges"><rect width="60" height="60" x="720" y="60" fill="#dddddf"/>
<rect width="60" height="60" x="780" y="60" fill="#729740"/>
<rect width="60" height="60" x="840" y="60" fill="#719840"/>
<rect width="60" height="60" x="900" y="60" fill="#547922"/>
<rect width="60" height="60" x="420" y="120" fill="#dddfde"/>
<rect width="60" height="60" x="480" y="120" fill="#ffead1"/>
<rect width="60" height="60" x="600" y="120" fill="#e8fbca"/>
<rect width="60" height="60" x="660" y="120" fill="#6f974c"/>
<rect width="60" height="60" x="720" y="120" fill="#8daf6d"/>
<rect width="60" height="60" x="780" y="120" fill="#7ba24e"/>
<rect width="60" height="60" x="840" y="120" fill="#6f9542"/>
<rect width="60" height="60" x="900" y="120" fill="#507421"/>
<rect width="60" height="60" x="960" y="120" fill="#557722"/>
<rect width="60" height="60" x="180" y="180" fill="#c66d70"/>
<rect width="60" height="60" x="240" y="180" fill="#d56574"/>
<rect width="60" height="60" x="300" y="180" fill="#f6768a"/>
<rect width="60" height="60" x="360" y="180" fill="#f498aa"/>
<rect width="60" height="60" x="420" y="180" fill="#f18f9b"/>
<rect width="60" height="60" x="480" y="180" fill="#d7b595"/>
<rect width="60" height="60" x="540" y="180" fill="#f78892"/>
<rect width="60" height="60" x="600" y="180" fill="#5f6403"/>
<rect width="60" height="60" x="660" y="180" fill="#a5ca8c"/>
<rect width="60" height="60" x="720" y="180" fill="#95b976"/>
<rect width="60" height="60" x="780" y="180" fill="#81ad5a"/>
<rect width="60" height="60" x="840" y="180" fill="#5f8236"/>
<rect width="60" height="60" x="900" y="180" fill="#5e8131"/>
<rect width="60" height="60" x="960" y="180" fill="#597c2e"/>
<rect width="60" height="60" x="1020" y="180" fill="#3d5f0d"/>
<rect width="60" height="60" x="120" y="240" fill="#d3a9a2"/>
<rect width="60" height="60" x="180" y="240" fill="#a31a1f"/>
<rect width="60" height="60" x="240" y="240" fill="#c03244"/>
<rect width="60" height="60" x="300" y="240" fill="#fe9eb1"/>
<rect width="60" height="60" x="360" y="240" fill="#f8b1c0"/>
<rect width="60" height="60" x="420" y="240" fill="#fedee9"/>
<rect width="60" height="60" x="480" y="240" fill="#fdc4d0"/>
<rect width="60" height="60" x="540" y="240" fill="#ffc2d6"/>
<rect width="60" height="60" x="600" y="240" fill="#b42012"/>
<rect width="60" height="60" x="660" y="240" fill="#3c1e04"/>
<rect width="60" height="60" x="720" y="240" fill="#8c7876"/>
<rect width="60" height="60" x="780" y="240" fill="#fdfdfb"/>
<rect width="60" height="60" x="840" y="240" fill="#75811d"/>
<rect width="60" height="60" x="900" y="240" fill="#7b9d54"/>
<rect width="60" height="60" x="960" y="240" fill="#43690c"/>
<rect width="60" height="60" x="1020" y="240" fill="#5e8131"/>
<rect width="60" height="60" x="120" y="300" fill="#750e01"/>
<rect width="60" height="60" x="180" y="300" fill="#940d02"/>
<rect width="60" height="60" x="240" y="300" fill="#b31c1f"/>
<rect width="60" height="60" x="300" y="300" fill="#e96c7a"/>
<rect width="60" height="60" x="360" y="300" fill="#fc96a1"/>
<rect width="60" height="60" x="420" y="300" fill="#ffa1ac"/>
<rect width="60" height="60" x="480" y="300" fill="#fc879c"/>
<rect width="60" height="60" x="540" y="300" fill="#ff819a"/>
<rect width="60" height="60" x="600" y="300" fill="#e04f64"/>
<rect width="60" height="60" x="660" y="300" fill="#c9291d"/>
<rect width="60" height="60" x="720" y="300" fill="#881800"/>
<rect width="60" height="60" x="780" y="300" fill="#5f220e"/>
<rect width="60" height="60" x="900" y="300" fill="#f3f3f3"/>
<rect width="60" height="60" x="960" y="300" fill="#85a25d"/>
<rect width="60" height="60" x="1020" y="300" fill="#82a15e"/>
<rect width="60" height="60" x="60" y="360" fill="#681f13"/>
<rect width="60" height="60" x="120" y="360" fill="#790e00"/>
<rect width="60" height="60" x="180" y="360" fill="#c85943"/>
<rect width="60" height="60" x="240" y="360" fill="#bd1b12"/>
<rect width="60" height="60" x="300" y="360" fill="#e97883"/>
<rect width="60" height="60" x="360" y="360" fill="#f7c4ca"/>
<rect width="60" height="60" x="420" y="360" fill="#fcc7cd"/>
<rect width="60" height="60" x="480" y="360" fill="#f9a3ac"/>
<rect width="60" height="60" x="540" y="360" fill="#f68491"/>
<rect width="60" height="60" x="600" y="360" fill="#ec5359"/>
<rect width="60" height="60" x="660" y="360" fill="#ce171a"/>
<rect width="60" height="60" x="720" y="360" fill="#b01b04"/>
<rect width="60" height="60" x="780" y="360" fill="#a52714"/>
<rect width="60" height="60" x="840" y="360" fill="#661409"/>
<rect width="60" height="60" x="1020" y="360" fill="#fffffd"/>
<rect width="60" height="60" x="60" y="420" fill="#681908"/>
<rect width="60" height="60" x="120" y="420" fill="#831604"/>
<rect width="60" height="60" x="180" y="420" fill="#992c11"/>
<rect width="60" height="60" x="240" y="420" fill="#b31104"/>
<rect width="60" height="60" x="300" y="420" fill="#d0291f"/>
<rect width="60" height="60" x="360" y="420" fill="#f1737b"/>
<rect width="60" height="60" x="420" y="420" fill="#f89b9d"/>
<rect width="60" height="60" x="480" y="420" fill="#f48791"/>
<rect width="60" height="60" x="540" y="420" fill="#d85e65"/>
<rect width="60" height="60" x="600" y="420" fill="#d33639"/>
<rect width="60" height="60" x="660" y="420" fill="#c82113"/>
<rect width="60" height="60" x="720" y="420" fill="#df9271"/>
<rect width="60" height="60" x="780" y="420" fill="#8a0e04"/>
<rect width="60" height="60" x="840" y="420" fill="#680c02"/>
<rect width="60" height="60" x="60" y="480" fill="#66190a"/>
<rect width="60" height="60" x="120" y="480" fill="#761501"/>
<rect width="60" height="60" x="180" y="480" fill="#921101"/>
<rect width="60" height="60" x="240" y="480" fill="#aa1404"/>
<rect width="60" height="60" x="300" y="480" fill="#b81503"/>
<rect width="60" height="60" x="360" y="480" fill="#c01904"/>
<rect width="60" height="60" x="420" y="480" fill="#c01304"/>
<rect width="60" height="60" x="480" y="480" fill="#d12b26"/>
<rect width="60" height="60" x="540" y="480" fill="#ce2414"/>
<rect width="60" height="60" x="600" y="480" fill="#ce2c20"/>
<rect width="60" height="60" x="660" y="480" fill="#c32009"/>
<rect width="60" height="60" x="720" y="480" fill="#a31510"/>
<rect width="60" height="60" x="780" y="480" fill="#840a03"/>
<rect width="60" height="60" x="840" y="480" fill="#6b0a06"/>
<rect width="60" height="60" x="60" y="540" fill="#792c28"/>
<rect width="60" height="60" x="120" y="540" fill="#811405"/>
<rect width="60" height="60" x="180" y="540" fill="#8a0e04"/>
<rect width="60" height="60" x="240" y="540" fill="#930f00"/>
<rect width="60" height="60" x="300" y="540" fill="#a50f00"/>
<rect width="60" height="60" x="360" y="540" fill="#a91100"/>
<rect width="60" height="60" x="420" y="540" fill="#b10f03"/>
<rect width="60" height="60" x="480" y="540" fill="#ba1705"/>
<rect width="60" height="60" x="540" y="540" fill="#c31f0d"/>
<rect width="60" height="60" x="600" y="540" fill="#d2392d"/>
<rect width="60" height="60" x="660" y="540" fill="#b11a0f"/>
<rect width="60" height="60" x="720" y="540" fill="#a2231e"/>
<rect width="60" height="60" x="780" y="540" fill="#7a0c0f"/>
<rect width="60" height="60" x="840" y="540" fill="#9e444b"/>
<rect width="60" height="60" x="60" y="600" fill="#ad787c"/>
<rect width="60" height="60" x="120" y="600" fill="#8a2c30"/>
<rect width="60" height="60" x="180" y="600" fill="#7e1305"/>
<rect width="60" height="60" x="240" y="600" fill="#840f05"/>
<rect width="60" height="60" x="300" y="600" fill="#900c00"/>
<rect width="60" height="60" x="360" y="600" fill="#920b00"/>
<rect width="60" height="60" x="420" y="600" fill="#9f1003"/>
<rect width="60" height="60" x="480" y="600" fill="#a41304"/>
<rect width="60" height="60" x="540" y="600" fill="#b4180f"/>
<rect width="60" height="60" x="600" y="600" fill="#a81c10"/>
<rect width="60" height="60" x="660" y="600" fill="#a4201f"/>
<rect width="60" height="60" x="720" y="600" fill="#ad3c40"/>
<rect width="60" height="60" x="780" y="600" fill="#903f48"/>
<rect width="60" height="60" x="840" y="600" fill="#a15962"/>
<rect width="60" height="60" x="60" y="660" fill="#e6d2cf"/>
<rect width="60" height="60" x="120" y="660" fill="#9f555e"/>
<rect width="60" height="60" x="180" y="660" fill="#903c46"/>
<rect width="60" height="60" x="240" y="660" fill="#91252c"/>
<rect width="60" height="60" x="300" y="660" fill="#931818"/>
<rect width="60" height="60" x="360" y="660" fill="#8f120c"/>
<rect width="60" height="60" x="420" y="660" fill="#9e1314"/>
<rect width="60" height="60" x="480" y="660" fill="#a61f26"/>
<rect width="60" height="60" x="540" y="660" fill="#af323a"/>
<rect width="60" height="60" x="600" y="660" fill="#af3c43"/>
<rect width="60" height="60" x="660" y="660" fill="#a03844"/>
<rect width="60" height="60" x="720" y="660" fill="#a24c56"/>
<rect width="60" height="60" x="780" y="660" fill="#9e4a56"/>
<rect width="60" height="60" x="840" y="660" fill="#b06c75"/>
<rect width="60" height="60" x="120" y="720" fill="#b3767f"/>
<rect width="60" height="60" x="180" y="720" fill="#90464f"/>
<rect width="60" height="60" x="240" y="720" fill="#923840"/>
<rect width="60" height="60" x="300" y="720" fill="#922c38"/>
<rect width="60" height="60" x="360" y="720" fill="#912e39"/>
<rect width="60" height="60" x="420" y="720" fill="#9f323e"/>
<rect width="60" height="60" x="480" y="720" fill="#9e3441"/>
<rect width="60" height="60" x="540" y="720" fill="#ad404e"/>
<rect width="60" height="60" x="600" y="720" fill="#a9434f"/>
<rect width="60" height="60" x="660" y="720" fill="#9c444b"/>
<rect width="60" height="60" x="720" y="720" fill="#9d515b"/>
<rect width="60" height="60" x="780" y="720" fill="#a0535d"/>
<rect width="60" height="60" x="840" y="720" fill="#e5d6d0"/>
<rect width="60" height="60" x="120" y="780" fill="#e5d4d0"/>
<rect width="60" height="60" x="180" y="780" fill="#93575e"/>
<rect width="60" height="60" x="240" y="780" fill="#923e48"/>
<rect width="60" height="60" x="300" y="780" fill="#983942"/>
<rect width="60" height="60" x="360" y="780" fill="#8f333b"/>
<rect width="60" height="60" x="420" y="780" fill="#9a3545"/>
<rect width="60" height="60" x="480" y="780" fill="#983442"/>
<rect width="60" height="60" x="540" y="780" fill="#9f3e48"/>
<rect width="60" height="60" x="600" y="780" fill="#983942"/>
<rect width="60" height="60" x="660" y="780" fill="#99404c"/>
<rect width="60" height="60" x="720" y="780" fill="#9e4d58"/>
<rect width="60" height="60" x="780" y="780" fill="#ab656f"/>
<rect width="60" height="60" x="180" y="840" fill="#aa8586"/>
<rect width="60" height="60" x="240" y="840" fill="#8c444f"/>
<rect width="60" height="60" x="300" y="840" fill="#91353f"/>
<rect width="60" height="60" x="360" y="840" fill="#89313b"/>
<rect width="60" height="60" x="420" y="840" fill="#a03e4d"/>
<rect width="60" height="60" x="480" y="840" fill="#963743"/>
<rect width="60" height="60" x="540" y="840" fill="#953642"/>
<rect width="60" height="60" x="600" y="840" fill="#963c43"/>
<rect width="60" height="60" x="660" y="840" fill="#943e44"/>
<rect width="60" height="60" x="720" y="840" fill="#b0595b"/>
<rect width="60" height="60" x="780" y="840" fill="#c49293"/>
<rect width="60" height="60" x="180" y="900" fill="#e4e5e2"/>
<rect width="60" height="60" x="240" y="900" fill="#8e4e54"/>
<rect width="60" height="60" x="300" y="900" fill="#8e363f"/>
<rect width="60" height="60" x="360" y="900" fill="#852b35"/>
<rect width="60" height="60" x="420" y="900" fill="#8a303a"/>
<rect width="60" height="60" x="480" y="900" fill="#8e313c"/>
<rect width="60" height="60" x="540" y="900" fill="#832933"/>
<rect width="60" height="60" x="600" y="900" fill="#8d353c"/>
<rect width="60" height="60" x="660" y="900" fill="#923d43"/>
<rect width="60" height="60" x="720" y="900" fill="#96454c"/>
<rect width="60" height="60" x="240" y="960" fill="#565953"/>
<rect width="60" height="60" x="300" y="960" fill="#8d3a40"/>
<rect width="60" height="60" x="360" y="960" fill="#852b33"/>
<rect width="60" height="60" x="420" y="960" fill="#852b35"/>
<rect width="60" height="60" x="480" y="960" fill="#873036"/>
<rect width="60" height="60" x="540" y="960" fill="#933b42"/>
<rect width="60" height="60" x="600" y="960" fill="#953f45"/>
<rect width="60" height="60" x="660" y="960" fill="#712125"/>
<rect width="60" height="60" x="360" y="1020" fill="#511815"/>
<rect width="60" height="60" x="420" y="1020" fill="#1a1d1a"/>
</svg>